<svg xmlns="http://www.w3.org/2000/svg" viewBox="0 0 885 517.5">
  <path
    d="M747.23,188.64c0-1.26.19-2.5.19-3.77A131.92,131.92,0,0,0,558.5,65.58,158.62,158.62,0,0,0,430.05,0C362,0,304,42.9,281.36,103.09A158.47,158.47,0,0,0,85.15,257.62c0,1.38.18,2.73.21,4.11A132.15,132.15,0,0,0,.05,388.91C2,461.13,63.69,517.5,135.94,517.5H177.1c10.13,0,20.27-2.76,28.34-8.89,51.08-38.84,24.36-135,2.9-195.5-2.66-7.49,7.22-12.93,12.18-6.73,60.63,75.82,111.38,110.23,173,110.23,114.68,0,203-159.62,267-233.17,7.07-8.11,20,.22,15.57,10C614.36,331.23,565.28,416.19,565.28,468.88c0,42.19,46.89,48.62,77.51,48.62h72.53c92.17,0,170.7-75.42,169.67-167.59C884.08,268.77,824.81,201.82,747.23,188.64ZM386.42,348.21A71.18,71.18,0,1,1,457.59,277,71.17,71.17,0,0,1,386.42,348.21Z"
    style="fill:#1399ea" />
</svg>