<?xml version="1.0" encoding="utf-8"?>
<!-- Generator: Adobe Illustrator 25.3.0, SVG Export Plug-In . SVG Version: 6.00 Build 0)  -->
<svg version="1.1" id="Layer_1" xmlns="http://www.w3.org/2000/svg" xmlns:xlink="http://www.w3.org/1999/xlink" x="0px" y="0px"
	 viewBox="0 0 24 24" style="enable-background:new 0 0 24 24;" xml:space="preserve">
<style type="text/css">
	.st0{fill:#4F2715;}
	.st1{fill:#F8E6DA;}
</style>
<path class="st0" d="M20.3,8.4c0,6.2-8.3,15.4-8.3,15.4S3.7,14.6,3.7,8.4c0-4.6,3.7-8.3,8.3-8.3C16.6,0.2,20.3,3.9,20.3,8.4z"/>
<path class="st1" d="M14.4,12.3c1.8-2.3,2.2-5.5,0.9-7.2c-0.2-0.3-0.4-0.5-0.5-0.5c-0.1,0-0.1,0.4-0.1,1c0.1,1.5-0.6,2.8-2.5,4.2
	c-1.6,1.2-2.4,2.3-2.6,3.5C9.5,13.9,9.5,14,10,14.2C11.2,14.6,13.2,13.8,14.4,12.3z M8.2,8.9c-0.5,1.8-0.2,3.8,0.7,4.6l0.4,0.4
	l-0.1-0.4c-0.2-0.5,0.2-1.8,0.7-2.7c0.4-0.6,1-1.1,1.6-1.5c2-1.4,2.8-2.6,2.8-4.3c0-0.6-0.1-0.7-0.4-0.8C11.8,3.6,9,5.9,8.2,8.9z"/>
</svg>
