<?xml version="1.0" encoding="utf-8"?>
<!-- Generator: Adobe Illustrator 25.3.0, SVG Export Plug-In . SVG Version: 6.00 Build 0)  -->
<svg version="1.1" id="Layer_1" xmlns="http://www.w3.org/2000/svg" xmlns:xlink="http://www.w3.org/1999/xlink" x="0px" y="0px"
	 viewBox="0 0 380 380" style="enable-background:new 0 0 380 380;" xml:space="preserve">
<style type="text/css">
	.st0{fill:#F8E6DA;}
	.st1{fill:#E9B48F;}
</style>
<rect class="st0" width="380" height="380"/>
<g>
	<g>
		<path class="st1" d="M133.1,124.9c-1,0.6-1.2,2.1-0.7,5.3c0.8,5.5,3.4,9.8,8.2,13.4c10.8,8.4,14.3,13.2,14.4,19.8
			c0,2.8,0,2.9,2,1.1c8.7-7.9,1.2-31.8-12.1-38.6C140.9,123.9,135.5,123.4,133.1,124.9z"/>
		<path class="st1" d="M165.4,224.1c0.1-3.9-0.2-4.6-1.9-4.9c-4.4-0.6-10.9,5.6-13.3,12.7c-2.6,7.6-0.2,19.7,4.3,21.4
			c1.3,0.5,1.4,0,0.9-3.3c-0.9-5.5-0.1-7.9,5.3-15C164.7,229.7,165.4,228,165.4,224.1z"/>
		<path class="st1" d="M165.8,34c0.4-4.7,0.3-5-1.9-4.9c-3.9,0.1-6.4,1.5-9.8,5.6c-3.6,4.4-5.1,8.8-5.1,15.6c0,5.1,2.9,12.1,5.4,13
			c1.2,0.5,1.4-0.3,1-4.6c-0.5-5.5,0.6-8.2,7-16.2C164.4,40,165.4,37.4,165.8,34z"/>
		<path class="st1" d="M275.3,210.4c1.2,1.6,1.6,1.7,4.9,0.3c4.1-1.7,7.7-6.2,10.8-13.4c2.7-6.5,5.6-9.1,12.1-11.3
			c4.4-1.5,4.9-1.9,3.3-2.8c-7.2-3.7-17-1.2-24.8,6.4C275,196,272,205.9,275.3,210.4z"/>
		<path class="st1" d="M232,242c9.6-12.1,11.8-29.6,4.9-38.4c-1.1-1.4-2.3-2.6-2.7-2.6s-0.6,2.4-0.4,5.2c0.5,8.2-3.4,14.7-13.3,22.4
			c-8.5,6.4-12.9,12.3-14.1,18.6c-0.6,3.5-0.4,3.9,2.2,4.9C215.1,254.5,225.7,250,232,242z"/>
		<path class="st1" d="M266.1,257c-2.4,0-7.3,4.6-9.5,8.7c-4,7.8-3.2,19.4,1.6,24.8c3.6,4.1,6.1,4.4,7.6,1c1.7-3.6,1.5-8.6-0.4-14.2
			c-2.2-6.4-2-12.5,0.5-16.8C267.8,257.2,267.8,257,266.1,257z"/>
		<path class="st1" d="M194.5,307c4.7,6,9.4,8.9,14.8,9c3.2,0,3.7-0.3,3.8-2.3c0.5-9.5-6.5-17.9-17.7-21.3
			c-6.4-1.9-10.1-1.7-15.4,0.7l-4.5,2.1l4.8,1.3C186.4,298.1,189.4,300.3,194.5,307z"/>
		<path class="st1" d="M195.4,102.4c-6.4-1.9-10.1-1.7-15.4,0.7c-4.8,2.3-4.7,2.4,1.3,3.4c4.3,0.7,10.4,5.7,13.8,11.1
			c2.7,4.4,9.5,8.4,14.2,8.4c2.8,0,3.7-0.4,3.8-1.8C213.7,114.4,206.8,105.8,195.4,102.4z"/>
		<path class="st1" d="M220.5,38.6c-8.5,6.4-12.9,12.3-14,18.7c-0.5,3.4-0.4,3.8,2.2,4.8c6.3,2.4,16.4-1.8,22.7-9.4
			c8.2-10,11.8-24.7,8.2-34.1c-0.9-2.3-2.7-5.3-3.9-6.4l-2.3-2.2l0.4,5.8C234.4,24.5,230.7,30.7,220.5,38.6z"/>
		<path class="st1" d="M256.1,166.3c5.2-4.7,5.3-6.8,0.2-4.6c-5.2,2.1-10.5,1.3-19.3-3.1c-7-3.4-13-4.5-16.7-2.9
			c-2.6,1-1.3,5.5,2.5,9.3c3.7,3.7,11.6,7,16.8,7C245.6,172,252.4,169.6,256.1,166.3z"/>
		<path class="st1" d="M130.5,125.5l-2.2,2.9c-2.8,3.5-3.7,8.2-3,15.1c1.3,13,13.6,26.1,23.5,25.3c3.4-0.3,3.7-0.6,4-3.6
			c0.5-4.9-3.6-11.1-10.7-16c-3.3-2.3-7-5.9-8.2-7.8c-1.4-2.2-2.5-6.1-2.8-9.8L130.5,125.5z"/>
		<path class="st1" d="M205.5,131.6c6.5-2.5,7.5-4.3,2.2-4.3c-6.2,0-11.2-2.8-16-9.2c-2.4-3-5.8-6.6-7.6-7.8
			c-1.9-1.3-4.9-2.3-6.7-2.3c-3.2,0-3.4,0.2-3.4,3.4c0,4.7,1.3,7.7,5.2,12.1C185.6,130.8,197.7,134.5,205.5,131.6z"/>
		<path class="st1" d="M172,35.1c-2.9-5.8-4.5-5.8-4.5-0.1c0,4.7-0.3,5.3-8,15.9c-1.9,2.5-2.5,4.7-2.5,8.3c0,5.8,1.6,6.9,6.5,4.5
			C172.4,59.4,176.9,44.6,172,35.1z"/>
		<path class="st1" d="M268.5,69c-2.8,3.1-3,9.6-0.6,17.5c2.3,7.2,2.1,11.1-0.5,15.2c-1.3,2-1.3,2.3,0.1,2.3c4.8,0,11-8.4,12.1-16.3
			c1-7.2-0.3-13.3-3.8-17.2C272.3,66.5,271,66.2,268.5,69z"/>
		<path class="st1" d="M85.3,210.4c1.2,1.6,1.6,1.7,4.9,0.3c4.1-1.7,7.6-6.1,10.7-13.2c3.3-7.5,7.3-10.9,14.6-12.5
			c2.8-0.6,2.9-0.7,1-1.7c-12.2-6.7-32.5,7.1-32.5,22.1C84,207.2,84.6,209.4,85.3,210.4z"/>
		<path class="st1" d="M76.1,257c-2.7,0-7.8,5.1-10.1,10.2c-2.2,4.8-2.6,14-0.9,18.5c1.3,3.6,5.8,8.3,7.9,8.3
			c3.8,0,5.1-8.7,2.4-16.1c-2.2-6.3-2.1-13.1,0.5-17.4C77.8,257.2,77.8,257,76.1,257z"/>
		<path class="st1" d="M77.6,70.4c-2.1,4.5-2,8.7,0.4,16.6c2.2,6.7,2,10.6-0.6,14.7c-1.3,2-1.3,2.3,0.1,2.3c5.3,0,11.4-9,12.2-17.9
			c0.6-6.9-0.9-12.5-4.5-16.4C81.8,66.1,79.6,66.3,77.6,70.4z"/>
		<path class="st1" d="M25.2,37.4C36.6,29.5,42,21.6,42,12.8c0-2.9-0.5-3.7-2.2-4.2c-16-4.3-35.4,20-31.7,39.7c1,5.6,2,7.5,4.9,10.2
			l2.3,2l-0.7-2.2C12.9,52.8,18.2,42.3,25.2,37.4z"/>
		<path class="st1" d="M18.6,62.1c5.8,2.2,14.3-1,21.2-7.9c9.1-9,13.6-25.5,9.8-35.6c-0.9-2.3-2.7-5.2-3.9-6.4l-2.2-2.1v6.7
			c0,9.1-3.2,14.5-12.8,21.6c-10.1,7.5-12.8,11-14.2,18.9C15.8,60.7,16,61.1,18.6,62.1z"/>
		<path class="st1" d="M27.1,225.9c10.1-6.8,14.9-14.1,14.9-22.6c0-2.2-0.6-3.6-1.9-4.3c-1.1-0.5-3-1-4.3-0.9
			c-15.9,0.6-31,22.6-27.7,40.2c1,5.6,2,7.5,4.9,10.2l2.3,2l-0.7-2.2c-1-3,1-10,4.2-14.7C20.2,231.5,24,228.1,27.1,225.9z"/>
		<path class="st1" d="M61.5,336c-10.2-5-24.6-2.8-30.4,4.6c-2.6,3.3-2.7,4.8-0.2,3.4c4.1-2.2,11.6-1.2,18.5,2.5
			c8.3,4.4,13,5.2,18,3.1c3.2-1.3,3.6-1.9,3-3.8C69.1,341.6,66,338.2,61.5,336z"/>
		<path class="st1" d="M106.2,213.4c4.6-2.3,10.6-8.2,12.9-12.6c1.9-3.6,2.5-10.1,1.3-13.2c-0.9-2.3-4.3-1.9-9.1,1
			c-3.4,2-4.9,3.9-7.7,9.8C100,205.9,94.4,212,91,212c-3.1,0-3.3,1.9-0.3,3.1C94.2,216.5,101.8,215.6,106.2,213.4z"/>
		<path class="st1" d="M66.1,356.3c5.1-4.6,5.3-6.8,0.4-4.7c-5.7,2.4-10.3,1.7-18.9-2.6c-5.6-2.8-9.1-4-12-3.9
			c-5.6,0.1-6.6,0.6-6.6,3.6c0,5.6,11.9,13.3,20.6,13.3C55.6,362,62.4,359.6,66.1,356.3z"/>
		<path class="st1" d="M84.8,259.5c-3.6-3-4-3-6.3-0.5c-2.8,3.1-3,9.6-0.6,17.5c2.3,7.2,2.1,11.1-0.5,15.2c-1.3,2-1.3,2.3,0.1,2.3
			c2.7,0,6.5-3.1,9.1-7.6C91.6,277.9,90.7,264.5,84.8,259.5z"/>
		<path class="st1" d="M23.3,252.4c6.3-0.1,10.5-2.1,16.4-8c11.3-11.3,14.8-31.2,7.2-40.8c-1.1-1.4-2.3-2.6-2.7-2.6
			s-0.7,2.8-0.7,6.3c-0.1,8.8-3.4,14.1-13.2,21.3c-8,6-12.6,12.1-13.8,18.1C15.6,251.4,16.9,252.5,23.3,252.4z"/>
		<path class="st1" d="M42,143.9c-4.7,1.5-8.8,4.1-10.9,6.7c-2.7,3.4-2.7,4.8,0,3.4c4.1-2.3,10.8-1.4,18,2.4
			c7.9,4.1,13,5.1,17.9,3.3c2.9-1,3.5-1.7,3.2-3.7c-0.4-3.7-3.4-7.2-8.5-9.9C56.7,143.6,46.4,142.4,42,143.9z"/>
		<path class="st1" d="M42,170.4c6.4,1.9,8.2,2,15.1,0.5c5.3-1.2,12.9-6.7,12.9-9.5c0-1.7,0-1.7-3.9,0.2c-4.6,2.3-10.6,1.4-19-3
			c-5-2.6-8.2-3.6-11.3-3.5c-5.8,0.1-6.8,0.6-6.8,3.6C29,162.6,35.5,168.5,42,170.4z"/>
		<path class="st1" d="M76.1,67c-2.4,0-7.3,4.6-9.5,8.9c-2.1,3.9-3.1,12.5-2.2,17.5c0.8,4.2,6,10.6,8.5,10.6c4,0,5.2-8.6,2.5-16.7
			c-2.3-6.6-2.2-12.3,0.4-16.7C77.8,67.2,77.8,67,76.1,67z"/>
		<path class="st1" d="M199,223.9c-2.6,9.7-0.9,20.3,4,24.6l2.3,2l-0.7-2.2c-0.9-2.9,1-9.7,4-14.3c1.4-2.1,5.1-5.6,8.3-7.9
			c10.9-7.6,15.1-14.1,15.1-23.2c0-3-0.4-3.8-2.2-4.3C218.3,195.6,203.3,207.9,199,223.9z"/>
		<path class="st1" d="M4.4,116.8c4.3,5.9,9.7,9.2,15.1,9.2c3.4,0,3.5-0.1,3.5-4.2c0-8.4-8.2-17.1-18.5-19.7L0,101l0.1,29.8
			c4.4,2.4,11.2,2.4,15.3,0.8c6.6-2.5,7.6-4.3,2.3-4.3c-2.3,0-5.9-0.8-8-1.8c-4.7-2.2-10-8.7-9.5-11.7C0.5,111.8,1,112.2,4.4,116.8z
			"/>
		<path class="st1" d="M260.2,346c-0.4-3.7-3.4-7.2-8.5-9.9c-5-2.5-15.3-3.7-19.7-2.2c-4.7,1.5-8.8,4.1-10.9,6.7
			c-2.6,3.3-2.7,4.8-0.2,3.4c4.1-2.2,11.6-1.2,18.5,2.5c7.7,4.1,12.7,5,17.6,3.2C259.9,348.7,260.5,348,260.2,346z"/>
		<path class="st1" d="M85.3,20.4c1.2,1.6,1.6,1.7,4.8,0.3c4.5-1.9,6.3-4,10.7-12.8c2-4.1,4.4-7.5,5.4-7.7c1.2-0.2,0.8,1.4-2.3,7.6
			C99.9,16,94.4,22,91,22c-3.1,0-3.3,1.9-0.3,3.1c3.7,1.4,11.2,0.5,16-2c7.7-3.9,14.3-13,14.3-19.6V0H89.9l-3,5.6
			C83.8,11.6,83.1,17.4,85.3,20.4z"/>
		<path class="st1" d="M379.8,113.1l0.2,1.2V101h-2.7c-1.6,0-4.8,1-7.3,2.2l-4.5,2.1l4.5,0.8C375.5,107.2,379.4,109.9,379.8,113.1z"
			/>
		<path class="st1" d="M348.5,352.7c3.1-5,2.7-14.6-0.8-22.2c-3.3-7.1-5.6-9.8-11.6-13.6c-2.8-1.8-5.8-2.9-8-2.9
			c-5.5,0-6.5,1.1-5.7,6.2c0.8,5.5,3.4,9.8,8.2,13.4C341.4,342,345,346.8,345,353C345,356.9,346.1,356.8,348.5,352.7z"/>
		<path class="st1" d="M362,225.1c-2.9-5.8-4.5-5.8-4.5-0.1c0,4.7-0.3,5.3-8,15.9c-1.9,2.5-2.5,4.7-2.5,8.3c0,5.8,1.6,6.9,6.5,4.5
			C362.4,249.4,366.9,234.6,362,225.1z"/>
		<path class="st1" d="M362,35.1c-2.9-5.8-4.5-5.8-4.5-0.1c0,4.7-0.3,5.3-8,15.9c-1.9,2.5-2.5,4.7-2.5,8.3c0,5.8,1.6,6.9,6.5,4.5
			C362.4,59.4,366.9,44.6,362,35.1z"/>
		<path class="st1" d="M370,293.1l-4.5,2.1l5.5,1.4c6.1,1.7,9,3.8,9,6.7V291h-2.7C375.7,291,372.5,292,370,293.1z"/>
		<path class="st1" d="M338.8,358.8c3.4-0.3,3.7-0.6,4-3.6c0.5-4.8-3.3-10.5-10.4-15.8c-3.5-2.5-7.3-6.2-8.5-8.1
			c-1.4-2.1-2.5-6-2.8-9.7l-0.6-6.1l-2.2,2.9c-6.2,7.8-3.3,24.2,5.8,33.4C328.7,356.5,334.4,359.2,338.8,358.8z"/>
		<path class="st1" d="M377.3,302.8c-3.8-3.5-6.6-4.8-10.2-4.8c-2.9,0-3.1,0.3-3.1,3.4c0,7,4.7,13.8,12.3,17.7l3.7,1.9v-17.7
			C380,305.3,379.8,305.2,377.3,302.8z"/>
		<path class="st1" d="M4.7,307.2c4.5,6,9.2,8.8,14.7,8.8c3.6,0,3.6-0.1,3.6-4.2c0-8.3-8.2-17-18.7-19.8L0,290.9v29.9
			c6.8,2.9,17.2,1.9,20.4-1.7c1.7-1.9,1.6-1.9-2.6-1.9c-2.4,0.1-6-0.7-8.1-1.7c-4.7-2.2-10-8.7-9.5-11.7
			C0.5,301.9,1.1,302.4,4.7,307.2z"/>
		<path class="st1" d="M377.3,112.9c-3.8-3.6-6.6-4.9-10.2-4.9c-2.9,0-3.1,0.3-3.1,3.4c0,1.9,0.4,4.6,0.9,5.9
			c1.5,3.8,7,9.6,11.3,11.8l3.8,1.9v-15.7L377.3,112.9z"/>
		<path class="st1" d="M112.1,378.1c-1.8,1.1-4.1,1.8-5,1.6c-1.9-0.5,6.3-4.6,9.2-4.7c3,0,0.9-1.9-3.4-3c-5.2-1.4-13,0.7-18.4,5
			l-3.8,3h30.4C120.3,375,116.4,375.4,112.1,378.1z"/>
		<path class="st1" d="M302.1,378.1c-1.8,1.1-4.1,1.8-5,1.6c-1.9-0.5,6.3-4.6,9.2-4.7c2.8,0,1-1.8-3-2.9c-5.1-1.4-12.3,0.3-18.3,4.5
			l-5,3.4l31,0C310.4,375.8,306.4,375.4,302.1,378.1z"/>
		<path class="st1" d="M280.1,0c0,0.2-1.2,2.5-2.5,4.5c-3,4.4-4,8.6-3.2,13c0.9,4.4,1.8,4.9,5.8,3.2c4.4-1.9,6-3.9,10.6-12.7
			c2.1-4.1,4.5-7.6,5.4-7.8c1.2-0.2,0.7,1.6-2.3,7.6C289.9,16,284.4,22,281,22c-3.2,0-3.2,1.7,0,3c6.4,2.7,16.6-0.7,23.1-7.7
			c4.7-4.9,6.9-9.3,6.9-13.8V0H280.1z"/>
		<path class="st1" d="M148.8,358.8c3-0.2,3.8-0.7,4-2.7c0.2-1.2,0.1-3.4-0.2-4.7c-0.8-3.1-6.8-9.8-12.2-13.5
			c-2.3-1.6-5.2-4.5-6.5-6.5c-1.4-2.2-2.5-6-2.8-9.8l-0.6-6.1l-2.2,2.9c-2.8,3.5-3.7,8.2-3,15.1
			C126.6,346.5,138.9,359.6,148.8,358.8z"/>
		<path class="st1" d="M155,353.2c0,3.7,1.1,3.5,3.5-0.5c1.4-2.3,2-5,2-9.7c0-11.2-7-22.9-16-27.1c-4.9-2.3-11.3-2.5-12.1-0.4
			c-0.8,2,0.4,8.2,2.2,11.7c0.8,1.5,3.2,4.2,5.5,6c9.6,7.7,11.3,9.5,13,13.3C154.1,348.7,155,351.7,155,353.2z"/>
		<path class="st1" d="M229.8,8.6c-11.5-3-26.5,9.3-30.8,25.3c-2.6,9.8-1.1,19.8,3.7,24.2c2.5,2.4,2.5,2.4,1.9,0.2
			c-0.9-3,1-9.7,4-14.3c1.4-2.1,5.1-5.6,8.3-7.9C227.8,28.5,232,22,232,12.9C232,9.9,231.6,9.1,229.8,8.6z"/>
		<path class="st1" d="M266.1,67c-2.4,0-7.3,4.6-9.6,9c-2.3,4.5-3.2,15-1.5,19.2c1.7,4.2,5.9,8.8,8,8.8c3.9,0,5.1-8.7,2.4-16.7
			c-2.2-6.4-2-12.5,0.5-16.8C267.8,67.2,267.8,67,266.1,67z"/>
		<path class="st1" d="M256.5,351.6c-5.6,2.3-9.9,1.7-18.7-2.6c-5.7-2.8-9.4-4-12.3-3.9c-5.5,0.1-6.5,0.7-6.5,3.6
			c0,5.9,12,13.3,21.5,13.3c5.4,0,12.9-2.8,16.3-6.1C261.2,351.6,261.1,349.6,256.5,351.6z"/>
		<path class="st1" d="M232,143.9c-4.7,1.5-8.8,4.1-10.9,6.7c-2.7,3.4-2.7,4.8,0,3.3c4.2-2.2,11.4-1.3,18.1,2.5
			c7.3,4.1,12.9,5.1,17.8,3.3c2.9-1,3.5-1.7,3.2-3.7c-0.4-3.7-3.4-7.2-8.5-9.9C246.7,143.6,236.4,142.4,232,143.9z"/>
		<path class="st1" d="M171.8,224.9c-3.1-5.5-4.3-5.5-4.3,0.1c0,4.7-0.3,5.3-8,15.9c-1.9,2.5-2.5,4.7-2.5,8.3c0,5.8,1.6,6.9,6.5,4.5
			C172.6,249.4,177,234.1,171.8,224.9z"/>
		<path class="st1" d="M196.8,322.6c4.5,0.7,12-1.4,14.2-4.1c0.9-1.1,0.4-1.3-3.2-1.2c-6.3,0.2-11.2-2.7-16.5-9.5
			c-2.5-3.3-6-6.8-7.7-7.9c-1.7-1-4.6-1.9-6.3-1.9c-3.1,0-3.3,0.2-3.3,3.5C174,311.4,183.8,320.5,196.8,322.6z"/>
		<path class="st1" d="M331.5,167.1c15.2,7,15.6-6.9,0.4-18c-3.2-2.4-6.8-5.9-8-7.8c-1.4-2.1-2.5-6-2.8-9.7l-0.6-6.1l-2.2,2.9
			C310.1,138.7,317.7,160.8,331.5,167.1z"/>
		<path class="st1" d="M355.8,223.5c-0.2-3.1-0.7-4-2.3-4.2c-7.3-0.8-14.5,9.8-14.5,21.1c0,5.1,2.9,12,5.5,13c1.3,0.5,1.5,0,0.9-2.8
			c-0.9-5.3,0.3-9,5.7-16.3C355.4,228.5,356.1,227.1,355.8,223.5z"/>
		<path class="st1" d="M334.8,125.9c-4.5-2.3-11.6-2.6-12.4-0.4c-0.8,2,0.4,8.2,2.2,11.7c0.8,1.5,3.2,4.2,5.5,6
			c9.4,7.6,11.1,9.3,13,12.9c1,2.1,1.9,5.3,1.9,7c0,3.1,0,3.2,2,1.4c1.1-1,2.5-3.7,3.1-5.9C353.1,147.6,345.5,131.4,334.8,125.9z"/>
		<path class="st1" d="M355.4,34.2c0.1-4-0.2-4.7-1.9-5c-4.4-0.6-10.9,5.6-13.3,12.7c-2.6,7.5-0.2,19.7,4.2,21.4
			c1.2,0.5,1.4-0.3,1-4.6c-0.5-5.6,0.6-8.2,7-16.2C354.7,39.6,355.4,37.7,355.4,34.2z"/>
		<path class="st1" d="M296.2,213.4c4.6-2.3,10.6-8.2,12.9-12.6c1.9-3.6,2.5-10.1,1.3-13.2c-0.8-2.2-4.3-2-8.4,0.5
			c-4.4,2.7-5.5,4.2-8.6,10.9c-3.1,6.8-7.6,11.6-12.2,13.1l-3.5,1.2l2.8,1.5C283.9,216.5,291.3,215.9,296.2,213.4z"/>
		<path class="st1" d="M274.8,259.5c-3.6-3-4-3-6.3-0.5c-2.8,3.1-3,9.6-0.6,17.5c2.3,7.2,2.1,11.1-0.5,15.2c-1.3,2-1.3,2.3,0.2,2.3
			c0.9,0,2.9-0.9,4.5-2.1C281,285.6,282.6,266.1,274.8,259.5z"/>
	</g>
</g>
</svg>
